<svg width="379" height="283" viewBox="0 0 379 283" fill="none" xmlns="http://www.w3.org/2000/svg">
<path d="M239.125 144.073C238.704 146.334 238.199 148.573 237.61 150.788C237.546 151.045 237.474 151.299 237.403 151.556H229.209C228.511 151.557 227.842 151.84 227.349 152.344C226.855 152.848 226.578 153.531 226.577 154.244V178.094C226.329 178.566 226.077 179.035 225.825 179.503C224.524 181.922 223.17 184.314 221.786 186.675C199.221 225.053 167.75 257.168 130.149 280.185L132.376 275.056C131.56 274.998 130.74 274.94 129.924 274.883C112.156 273.643 94.3283 272.268 76.9779 268.191C58.8265 263.925 41.0701 256.526 26.8446 244.259C12.6152 231.988 2.18406 214.465 0.73628 195.506C0.253522 188.99 0.898931 182.439 2.64291 176.151C5.97822 164.05 13.266 153.161 23.78 146.718C40.2955 136.601 61.8387 138.663 79.2491 147.079C96.6559 155.491 110.825 169.417 124.66 183.101C110.692 158.645 91.2438 137.918 67.9117 122.622C60.1803 117.569 51.9752 113.069 45.4021 106.523C38.8327 99.9807 33.9855 90.8083 35.1476 81.513C36.4674 70.9699 44.9245 62.9685 53.3966 56.7985C56.7809 54.3335 60.2743 51.9953 63.8768 49.8452C74.041 43.7636 85.0364 39.1754 96.6484 37.4745C112.378 35.167 129.368 38.6686 141.427 49.2348C155.013 61.1409 160.586 80.3419 160.056 98.7098C168.426 86.2854 181.336 76.7751 195.915 76.372C211.05 75.9573 225.438 85.721 233.018 99.1053C240.596 112.486 241.957 128.888 239.125 144.073Z" fill="#ECECFF"/>
<path d="M142.464 195.666C151.273 194.869 159.41 193.938 167.946 191.456C176.22 189.05 184.182 185.023 190.072 178.448C196.407 171.375 199.827 162.19 202.24 153.047C203.585 147.949 204.69 142.78 205.733 137.609C206.865 131.999 207.871 126.363 208.75 120.703C210.5 109.437 211.75 98.1043 212.499 86.7052C212.589 85.3215 212.672 83.9373 212.748 82.5527C212.794 81.6985 211.501 81.7013 211.455 82.5527C210.84 93.7889 209.733 104.981 208.135 116.13C206.558 127.083 204.54 137.99 201.98 148.747C199.811 157.86 197.003 167.115 191.441 174.701C186.225 181.815 178.691 186.464 170.556 189.243C162.279 192.072 153.551 193.201 144.901 194.041C143.84 194.144 143.526 194.242 142.464 194.338C141.642 194.412 141.634 195.741 142.464 195.666L142.464 195.666Z" fill="white"/>
<path d="M3.38062 177.126C14.4945 177.759 25.4954 179.751 36.1505 183.059C46.8103 186.36 57.054 190.942 66.6694 196.708C75.9603 202.285 84.5854 208.957 92.3694 216.59C99.9239 224.002 106.657 232.251 112.445 241.185C118.259 250.142 123.078 259.74 126.811 269.801C127.266 271.032 127.704 272.27 128.126 273.513C128.398 274.315 129.648 273.97 129.373 273.16C125.881 262.888 121.277 253.05 115.649 243.833C110.021 234.615 103.417 226.066 95.9569 218.344C88.3771 210.501 79.9414 203.584 70.8172 197.73C51.6594 185.468 29.9442 178.05 7.45476 176.085C6.09816 175.969 4.74012 175.873 3.38064 175.797C2.54925 175.75 2.55181 177.079 3.38064 177.126L3.38062 177.126Z" fill="white"/>
<path d="M63.8298 51.4017C70.9358 53.7238 77.6714 57.1057 83.8209 61.4392C90.1046 65.8975 95.8355 71.1268 100.887 77.0114C106.209 83.2017 110.941 89.9027 115.018 97.0221C119.342 104.539 123.098 112.386 126.254 120.494C129.503 128.817 132.236 137.344 134.436 146.023C136.673 154.805 138.42 163.71 139.669 172.696C140.911 181.587 141.663 190.543 141.921 199.521C142.181 208.106 141.934 216.7 141.181 225.254C140.493 233.234 139.236 241.153 137.421 248.944C135.809 255.982 133.537 262.842 130.637 269.43C129.966 270.925 129.253 272.399 128.499 273.853C128.108 274.607 129.224 275.279 129.616 274.523C132.82 268.231 135.379 261.614 137.251 254.778C139.351 247.168 140.873 239.402 141.804 231.551C142.836 223.032 143.338 214.454 143.308 205.87C143.29 196.851 142.767 187.841 141.744 178.884C140.719 169.816 139.199 160.813 137.189 151.92C135.184 143.013 132.64 134.242 129.573 125.66C126.617 117.352 123.078 109.275 118.983 101.494C115.083 94.0681 110.538 87.0199 105.404 80.4347C100.528 74.1648 94.9612 68.4965 88.8151 63.5434C82.8886 58.7816 76.3396 54.9001 69.3606 52.013C67.6551 51.3156 65.9261 50.6848 64.1735 50.1208C63.378 49.8636 63.0376 51.1456 63.8298 51.4017H63.8298Z" fill="white"/>
<path d="M146.081 282.47C204.356 282.47 251.597 280.68 251.597 278.471C251.597 276.262 204.356 274.472 146.081 274.472C87.8068 274.472 40.5659 276.262 40.5659 278.471C40.5659 280.68 87.8068 282.47 146.081 282.47Z" fill="#CFD1F8"/>
<path d="M159.579 269.824L164.01 271.017L170.598 254.023L164.058 252.262L159.579 269.824Z" fill="#FFB8B8"/>
<path d="M171.479 277.546L157.551 273.796L158.961 268.267L167.508 270.568C168.935 270.953 170.155 271.904 170.899 273.212C171.644 274.521 171.852 276.08 171.479 277.546Z" fill="#2F2E41"/>
<path d="M198.971 273.066L203.48 272.238L202.519 253.972L195.864 255.194L198.971 273.066Z" fill="#FFB8B8"/>
<path d="M212.925 274.945L198.752 277.546L197.774 271.92L206.471 270.323C207.19 270.191 207.928 270.206 208.641 270.367C209.355 270.528 210.03 270.832 210.63 271.261C211.229 271.69 211.74 272.236 212.134 272.868C212.528 273.5 212.797 274.206 212.925 274.945Z" fill="#2F2E41"/>
<path d="M190.091 138.733C191.202 139.011 192.106 140.174 192.649 141.522C193.15 142.938 193.489 144.408 193.66 145.904C194.086 148.69 194.496 151.706 193.614 154.287C192.579 157.311 189.824 158.895 187.434 158.151C185.044 157.406 183.143 154.612 182.493 151.396C181.902 148.146 182.283 144.788 183.586 141.765C184.265 140.177 185.201 138.712 186.444 137.995C187.054 137.616 187.782 137.488 188.48 137.638C189.178 137.787 189.795 138.203 190.206 138.801" fill="#2F2E41"/>
<path d="M196.378 189.176L204.964 268.186L197.873 270.953L184.795 217.971L166.587 266.414L158.826 266.857C158.826 266.857 169.475 191.48 177.367 189.767L196.378 189.176Z" fill="#2F2E41"/>
<path d="M189.167 148.816C194.236 148.816 198.344 144.594 198.344 139.386C198.344 134.178 194.236 129.956 189.167 129.956C184.099 129.956 179.99 134.178 179.99 139.386C179.99 144.594 184.099 148.816 189.167 148.816Z" fill="#FFB8B8"/>
<path d="M186.767 147.959C188.205 147.106 188.358 145.05 188.163 143.356C187.968 141.663 187.641 139.774 188.61 138.389C189.767 136.736 192.09 136.703 194.071 136.649C196.052 136.595 198.464 135.999 198.977 134.033C199.316 132.734 198.59 131.34 197.549 130.524C196.508 129.708 195.206 129.348 193.94 129.005C191.108 128.238 188.183 127.465 185.283 127.887C182.411 128.304 179.814 129.867 178.055 132.236C176.295 134.606 175.514 137.592 175.881 140.549C176.351 144.331 177.031 145.982 176.585 147.65C175.752 150.756 172.164 152.751 172.092 155.972C172.036 158.492 174.202 160.435 176.315 161.714C177.991 162.729 179.8 163.59 181.732 163.827C183.663 164.065 185.743 163.61 187.182 162.265C189.038 160.53 189.497 157.631 188.965 155.112C188.432 152.593 187.067 150.355 185.717 148.183" fill="#2F2E41"/>
<path d="M193.106 152.772L183.189 151.443C183.189 151.443 176.721 159.417 177.152 173.152C177.583 186.886 176.074 191.095 176.074 191.095L196.753 191.479C193.763 187.256 206.266 163.001 193.106 152.772Z" fill="#6C63FF"/>
<path d="M198.433 193.399C198.226 193.401 198.02 193.419 197.816 193.454L185.128 179.576L186.422 175.146L180.17 172.266L176.289 182.013L194.543 196.932C194.445 197.744 194.589 198.568 194.958 199.293C195.326 200.018 195.901 200.611 196.605 200.993C197.31 201.375 198.111 201.527 198.901 201.43C199.692 201.332 200.435 200.99 201.032 200.448C201.629 199.906 202.051 199.19 202.242 198.396C202.433 197.602 202.384 196.766 202.102 196.001C201.82 195.236 201.318 194.577 200.662 194.112C200.007 193.647 199.229 193.399 198.433 193.399Z" fill="#FFB8B8"/>
<path d="M222.224 158.381C222.178 158.588 222.148 158.798 222.134 159.01L206.083 168.525L202.181 166.217L198.022 171.812L206.369 177.924L224.681 163.081C225.428 163.365 226.241 163.408 227.012 163.206C227.784 163.003 228.477 162.564 229 161.947C229.523 161.329 229.85 160.563 229.939 159.75C230.028 158.937 229.874 158.115 229.497 157.394C229.12 156.674 228.538 156.088 227.829 155.715C227.121 155.342 226.318 155.199 225.529 155.306C224.739 155.413 224 155.765 223.41 156.314C222.819 156.863 222.406 157.584 222.224 158.381Z" fill="#FFB8B8"/>
<path d="M44.0329 268.698C44.29 268.708 44.5437 268.636 44.7597 268.491C44.9758 268.347 45.1436 268.137 45.2406 267.891C45.3376 267.644 45.3589 267.373 45.3019 267.113C45.2448 266.853 45.1119 266.618 44.9214 266.44C44.8886 266.31 44.865 266.217 44.8322 266.087C45.0721 265.438 45.4939 264.878 46.0433 264.479C46.5928 264.08 47.245 263.859 47.9162 263.846C48.5874 263.833 49.2472 264.028 49.8109 264.405C50.3746 264.782 50.8165 265.325 51.08 265.964C52.6 269.551 54.5585 273.26 53.638 277.236C59.8315 263.311 57.5232 246.088 48.0725 234.325C45.4768 232.879 43.3599 230.284 42.7871 227.253C44.0692 227.689 45.6526 226.597 44.6789 225.214C44.2575 224.685 43.8321 224.161 43.4108 223.633C48.2159 218.236 54.0772 226.586 48.8004 233.86C50.5692 236.11 52.1058 238.546 53.3851 241.127C53.0698 238.376 53.3902 235.587 54.3199 232.989C55.2641 230.567 57.0568 228.517 58.6328 226.416C60.5488 223.856 64.5513 224.989 64.8419 228.211C63.0577 228.837 62.8498 231.515 64.9005 231.861C64.4195 237.865 60.6827 243.416 55.4904 246.098C57.4683 251.672 58.2753 257.619 57.8577 263.541C58.7148 256.616 65.8736 254.867 70.8628 252.069C71.18 251.854 71.5509 251.739 71.93 251.738C72.3092 251.738 72.6803 251.851 72.9981 252.065C73.316 252.279 73.5668 252.584 73.7199 252.943C73.8731 253.302 73.922 253.699 73.8607 254.087C73.1712 254.385 72.5121 254.753 71.8931 255.186C71.603 255.392 71.3816 255.685 71.2592 256.027C71.1368 256.368 71.1194 256.74 71.2094 257.092C71.2995 257.444 71.4924 257.758 71.762 257.992C72.0315 258.226 72.3643 258.368 72.7149 258.399C70.2468 264.897 63.7519 269.308 57.0399 269.35C56.4216 272.257 55.513 275.089 54.3289 277.801L44.3672 277.9C44.3305 277.785 44.2973 277.668 44.2641 277.553C45.1867 277.604 46.1118 277.538 47.0189 277.356C44.5519 274.391 42.6512 272.885 44.0326 268.699L44.0329 268.698Z" fill="#56B3FF"/>
<path d="M247.375 272.47C247.191 272.477 247.01 272.425 246.856 272.322C246.701 272.219 246.581 272.069 246.512 271.893C246.443 271.717 246.428 271.523 246.468 271.338C246.509 271.152 246.604 270.984 246.74 270.857C246.764 270.764 246.78 270.697 246.804 270.605C246.632 270.141 246.331 269.741 245.939 269.456C245.546 269.171 245.08 269.014 244.601 269.004C244.122 268.995 243.65 269.134 243.248 269.403C242.845 269.673 242.529 270.061 242.341 270.517C241.255 273.079 239.857 275.728 240.514 278.568C236.09 268.622 237.739 256.32 244.489 247.918C246.343 246.884 247.856 245.031 248.265 242.866C247.349 243.177 246.218 242.398 246.913 241.41C247.214 241.032 247.518 240.658 247.819 240.281C244.387 236.425 240.2 242.39 243.969 247.585C242.706 249.193 241.608 250.932 240.695 252.776C240.92 250.811 240.691 248.819 240.027 246.963C239.352 245.233 238.072 243.769 236.946 242.268C235.578 240.439 232.719 241.249 232.511 243.55C233.786 243.998 233.934 245.91 232.469 246.157C232.813 250.446 235.482 254.411 239.191 256.327C237.778 260.308 237.202 264.556 237.5 268.786C236.888 263.84 231.774 262.59 228.211 260.592C227.984 260.438 227.719 260.356 227.448 260.356C227.177 260.355 226.912 260.436 226.685 260.589C226.458 260.742 226.279 260.96 226.17 261.216C226.06 261.473 226.025 261.757 226.069 262.033C226.562 262.246 227.032 262.509 227.475 262.818C227.682 262.965 227.84 263.175 227.927 263.419C228.015 263.663 228.027 263.928 227.963 264.18C227.899 264.431 227.761 264.656 227.568 264.823C227.376 264.99 227.138 265.091 226.888 265.113C228.651 269.755 233.29 272.906 238.084 272.936C238.526 275.012 239.175 277.035 240.021 278.972L247.136 279.042C247.162 278.961 247.186 278.877 247.21 278.795C246.551 278.831 245.89 278.784 245.242 278.654C247.004 276.537 248.362 275.461 247.375 272.47L247.375 272.47Z" fill="#8D8AD5"/>
<path d="M185.668 164.218L198.307 173.474L203.959 166.192L191.673 156.063C191.145 155.627 190.535 155.307 189.882 155.121C189.229 154.936 188.545 154.89 187.874 154.985C187.203 155.081 186.558 155.316 185.978 155.677C185.398 156.038 184.897 156.516 184.503 157.083C183.737 158.188 183.429 159.561 183.647 160.899C183.866 162.237 184.593 163.431 185.668 164.218Z" fill="#6C63FF"/>
<path d="M183.057 162.241L177.18 177L185.373 180.988L192.158 166.381C192.45 165.753 192.614 165.07 192.64 164.374C192.666 163.678 192.553 162.984 192.309 162.335C192.065 161.685 191.694 161.094 191.22 160.596C190.745 160.099 190.177 159.707 189.55 159.443C188.945 159.189 188.297 159.059 187.643 159.062C186.989 159.065 186.342 159.2 185.739 159.46C185.137 159.72 184.589 160.099 184.129 160.576C183.669 161.053 183.304 161.619 183.057 162.241Z" fill="#56B3FF"/>
<ellipse cx="293.803" cy="244.762" rx="16.6603" ry="17.14" fill="#D7D7F6"/>
<path d="M366.321 168.675C366.263 168.675 366.227 168.673 366.214 168.672L359.329 168.673V167.625H366.239C366.399 167.631 369.663 167.726 372.671 163.96C377.153 158.346 380.833 144.449 372.915 110.123C362.268 63.9675 371.148 23.1916 375.46 7.8028C375.673 7.04146 375.711 6.23955 375.571 5.46043C375.432 4.68132 375.119 3.94635 374.657 3.31359C374.195 2.68084 373.597 2.16763 372.909 1.81453C372.222 1.46143 371.465 1.27811 370.697 1.27906H267.873C267.091 1.28014 266.321 1.47146 265.624 1.8375C264.927 2.20354 264.324 2.73398 263.863 3.38577C262.037 5.97931 259.53 10.9617 257.961 19.9708L256.962 19.7856C258.565 10.5808 261.153 5.4518 263.042 2.76975C263.597 1.98438 264.324 1.34521 265.163 0.904131C266.003 0.463057 266.931 0.232506 267.873 0.231204H370.697C371.622 0.230285 372.535 0.451403 373.363 0.877086C374.191 1.30277 374.912 1.92136 375.468 2.68397C376.025 3.44659 376.402 4.33235 376.57 5.27126C376.738 6.21017 376.692 7.17651 376.435 8.09394C372.146 23.4029 363.312 63.9673 373.903 109.881C381.932 144.689 378.072 158.887 373.42 164.668C370.352 168.482 366.971 168.675 366.321 168.675Z" fill="#DFDDDD"/>
<path d="M347.669 187.864C347.611 187.864 347.575 187.863 347.562 187.862L340.677 187.863V186.815H347.587C347.748 186.82 351.011 186.916 354.019 183.149C358.501 177.535 362.181 163.638 354.263 129.313C343.617 83.1571 352.496 42.3812 356.808 26.9924C357.021 26.2311 357.059 25.4292 356.919 24.6501C356.78 23.871 356.467 23.136 356.005 22.5032C355.543 21.8705 354.945 21.3573 354.258 21.0042C353.57 20.6511 352.813 20.4678 352.046 20.4687H249.221C248.439 20.4698 247.669 20.6611 246.972 21.0271C246.275 21.3932 245.672 21.9236 245.211 22.5754C243.385 25.1689 240.878 30.1514 239.309 39.1604L238.31 38.9752C239.913 29.7704 242.501 24.6414 244.39 21.9594C244.945 21.174 245.672 20.5348 246.512 20.0938C247.351 19.6527 248.279 19.4221 249.221 19.4208H352.046C352.971 19.4199 353.883 19.641 354.711 20.0667C355.539 20.4924 356.26 21.111 356.816 21.8736C357.373 22.6362 357.75 23.522 357.918 24.4609C358.086 25.3998 358.04 26.3661 357.784 27.2836C353.494 42.5925 344.66 83.1569 355.251 129.07C363.28 163.879 359.42 178.077 354.768 183.858C351.7 187.671 348.319 187.864 347.669 187.864Z" fill="#BFBFC0"/>
<path d="M329.022 207.054C328.965 207.054 328.928 207.053 328.916 207.052L227.728 207.053C226.754 207.054 225.794 206.808 224.933 206.338C224.072 205.867 223.336 205.186 222.788 204.354C222.241 203.521 221.9 202.563 221.795 201.563C221.689 200.563 221.823 199.551 222.184 198.616C225.855 189.143 230.799 166.416 222.656 120.636C213.042 66.5768 221.649 47.0398 225.796 41.1493C226.351 40.3639 227.078 39.7247 227.917 39.2836C228.756 38.8426 229.683 38.612 230.625 38.6107H333.397C334.321 38.6098 335.233 38.8309 336.061 39.2566C336.888 39.6823 337.609 40.3009 338.165 41.0635C338.721 41.8261 339.098 42.7119 339.266 43.6508C339.434 44.5897 339.388 45.556 339.132 46.4735C334.844 61.7824 326.015 102.347 336.6 148.26C344.625 183.068 340.768 197.267 336.118 203.048C333.051 206.861 329.672 207.054 329.022 207.054ZM230.625 39.6586C229.843 39.6596 229.073 39.851 228.377 40.217C227.681 40.583 227.078 41.1135 226.617 41.7653C222.547 47.5466 214.111 66.7866 223.654 120.446C231.432 164.18 227.66 187.306 223.126 199.006C222.82 199.778 222.705 200.616 222.792 201.445C222.878 202.274 223.163 203.068 223.621 203.755C224.075 204.448 224.687 205.016 225.403 205.408C226.119 205.801 226.917 206.005 227.728 206.005H328.941C329.1 206.013 332.363 206.106 335.369 202.339C339.848 196.725 343.527 182.828 335.613 148.503C324.972 102.347 333.847 61.5711 338.157 46.1823C338.369 45.421 338.407 44.6191 338.268 43.8399C338.128 43.0608 337.816 42.3259 337.354 41.6931C336.892 41.0604 336.294 40.5471 335.607 40.1941C334.921 39.841 334.164 39.6576 333.397 39.6586H230.625Z" fill="black"/>
<path d="M316.446 85.5191H235.475C234.395 85.5191 233.358 85.0698 232.594 84.2701C231.83 83.4703 231.401 82.3857 231.401 81.2547C231.401 80.1237 231.83 79.039 232.594 78.2393C233.358 77.4396 234.395 76.9903 235.475 76.9903H316.446C317.526 76.9903 318.562 77.4396 319.326 78.2393C320.09 79.039 320.52 80.1237 320.52 81.2547C320.52 82.3857 320.09 83.4703 319.326 84.2701C318.562 85.0698 317.526 85.5191 316.446 85.5191Z" fill="#56B3FF"/>
<path d="M316.446 103.287H235.475C234.395 103.287 233.358 102.838 232.594 102.038C231.83 101.239 231.401 100.154 231.401 99.0229C231.401 97.8919 231.83 96.8073 232.594 96.0076C233.358 95.2078 234.395 94.7585 235.475 94.7585H316.446C317.526 94.7585 318.562 95.2078 319.326 96.0076C320.09 96.8073 320.52 97.8919 320.52 99.0229C320.52 100.154 320.09 101.239 319.326 102.038C318.562 102.838 317.526 103.287 316.446 103.287Z" fill="#DCDBF1"/>
<path d="M316.446 121.056H235.475C234.395 121.056 233.358 120.606 232.594 119.807C231.83 119.007 231.401 117.922 231.401 116.791C231.401 115.66 231.83 114.576 232.594 113.776C233.358 112.976 234.395 112.527 235.475 112.527H316.446C317.526 112.527 318.562 112.976 319.326 113.776C320.09 114.576 320.52 115.66 320.52 116.791C320.52 117.922 320.09 119.007 319.326 119.807C318.562 120.606 317.526 121.056 316.446 121.056Z" fill="#DCDBF1"/>
<path d="M322.005 138.824H241.662C240.59 138.824 239.561 138.375 238.803 137.575C238.045 136.775 237.619 135.69 237.619 134.559C237.619 133.429 238.045 132.344 238.803 131.544C239.561 130.744 240.59 130.295 241.662 130.295H322.005C323.077 130.295 324.105 130.744 324.863 131.544C325.621 132.344 326.047 133.429 326.047 134.559C326.047 135.69 325.621 136.775 324.863 137.575C324.105 138.375 323.077 138.824 322.005 138.824Z" fill="#DCDBF1"/>
<path d="M322.005 156.592H241.662C240.59 156.592 239.561 156.143 238.803 155.343C238.045 154.543 237.619 153.459 237.619 152.328C237.619 151.197 238.045 150.112 238.803 149.312C239.561 148.513 240.59 148.063 241.662 148.063H322.005C323.077 148.063 324.105 148.513 324.863 149.312C325.621 150.112 326.047 151.197 326.047 152.328C326.047 153.459 325.621 154.543 324.863 155.343C324.105 156.143 323.077 156.592 322.005 156.592Z" fill="#DCDBF1"/>
<path d="M273.618 67.7508H235.47C234.391 67.7508 233.356 67.3015 232.593 66.5018C231.83 65.7021 231.401 64.6174 231.401 63.4864C231.401 62.3555 231.83 61.2708 232.593 60.4711C233.356 59.6713 234.391 59.222 235.47 59.222H273.618C274.698 59.222 275.733 59.6713 276.496 60.4711C277.259 61.2708 277.687 62.3555 277.687 63.4864C277.687 64.6174 277.259 65.7021 276.496 66.5018C275.733 67.3015 274.698 67.7508 273.618 67.7508Z" fill="#56B3FF"/>
<path d="M268.82 185.156C269.64 181.659 273.497 180.513 276.651 180.641C278.643 180.776 280.619 181.091 282.556 181.581C284.582 182.037 286.589 182.577 288.585 183.15C292.246 184.2 295.869 185.47 299.591 186.291C302.689 186.975 306.055 187.376 309.145 186.432C312.115 185.525 314.634 183.298 315.442 180.219C316.204 177.318 315.158 174.145 312.363 172.819C309.814 171.61 306.595 172.225 305.331 174.959C303.907 178.043 305.33 181.405 307.586 183.636C308.867 184.847 310.272 185.92 311.775 186.837C313.301 187.883 315 188.648 316.792 189.097C319.734 189.729 323.239 188.798 324.756 185.97C325.093 185.33 325.296 184.627 325.352 183.905C325.442 182.922 323.915 182.928 323.826 183.905C323.569 186.72 320.291 188.039 317.84 187.73C316.185 187.454 314.605 186.838 313.199 185.918C311.842 185.122 310.555 184.21 309.355 183.19C307.276 181.38 305.327 178.402 306.723 175.578C307.86 173.279 310.824 173.302 312.627 174.785C314.81 176.581 314.421 179.84 312.981 181.973C311.386 184.335 308.497 185.325 305.772 185.431C302.812 185.547 299.876 184.864 297.047 184.056C293.531 183.052 290.05 181.928 286.518 180.982C284.512 180.446 282.492 179.961 280.45 179.584C278.519 179.156 276.537 179.018 274.566 179.175C271.382 179.544 268.132 181.409 267.348 184.748C267.123 185.708 268.594 186.118 268.82 185.156L268.82 185.156Z" fill="black"/>
<path d="M187.591 29.9406C181.669 29.9492 177.174 25.2699 177.18 19.2302C177.18 18.8353 177.491 18.5139 177.875 18.5139H179.707C180.051 18.5139 180.343 18.7739 180.394 19.1238C180.515 19.963 180.752 20.78 181.098 21.5498L181.17 21.7084C181.218 21.8151 181.228 21.9357 181.199 22.0494C181.17 22.163 181.103 22.2627 181.01 22.3311C180.442 22.7482 180.226 23.5874 180.668 24.2415C181.225 25.0652 181.92 25.7803 182.72 26.3533C183.357 26.8075 184.172 26.5847 184.577 26.0012C184.643 25.9053 184.74 25.8364 184.851 25.8062C184.962 25.7761 185.079 25.7867 185.183 25.8363L185.336 25.9091C186.085 26.2662 186.879 26.5104 187.694 26.6347C188.035 26.6868 188.287 26.9875 188.287 27.3417V29.2264C188.287 29.3203 188.269 29.4132 188.234 29.4999C188.199 29.5866 188.148 29.6653 188.084 29.7317C188.019 29.798 187.943 29.8506 187.858 29.8864C187.774 29.9223 187.684 29.9407 187.592 29.9406H187.591Z" fill="#7170DA"/>
<path d="M198.394 24.2272C198.394 33.1681 191.356 40.3673 182.734 40.3673C174.112 40.3673 167.074 33.1681 167.074 24.2272C167.074 15.2864 174.112 8.08722 182.734 8.08722C191.356 8.08722 198.394 15.2864 198.394 24.2272Z" stroke="#56B3FF" stroke-width="2"/>
</svg>
