<svg width="45" height="39" viewBox="0 0 45 39" fill="none" xmlns="http://www.w3.org/2000/svg">
<path d="M37.5098 12.4329H30.6346V25.4895H37.5098V12.4329Z" fill="#BDECFF"/>
<path d="M37.5098 11.1012H30.6346V12.4329H37.5098V11.1012Z" fill="#25C0FF"/>
<path d="M13.0067 12.4329H6.13159V25.4895H13.0067V12.4329Z" fill="#BDECFF"/>
<path d="M13.0067 11.1012H6.13159V12.4329H13.0067V11.1012Z" fill="#25C0FF"/>
<path d="M25.3466 12.4329H18.4716V25.4895H25.3466V12.4329Z" fill="#BDECFF"/>
<path d="M25.3466 11.1012H18.4716V12.4329H25.3466V11.1012Z" fill="#25C0FF"/>
<path d="M21.9982 1.33533L1.54919 8.28977V11.1011H21.9982H42.4472V8.28977L21.9982 1.33533Z" fill="#BDECFF"/>
<path d="M21.9982 2.28223L1.54919 9.19228V10.3612L21.9982 3.46596L42.4472 10.3612V9.19228L21.9982 2.28223Z" fill="#25C0FF"/>
<path d="M43.7156 7.53508L22.2971 0.432674C22.0503 0.343894 21.7682 0.343894 21.5214 0.432674L0.367267 7.53508C0.10284 7.62386 -0.0381872 7.8754 0.085212 8.11215L0.649323 9.29589C0.755093 9.51784 1.05478 9.62141 1.3192 9.53263L21.9092 2.62258L42.7461 9.54743C43.0105 9.63621 43.3102 9.53263 43.4336 9.31068L44.0153 8.12695C44.1211 7.8902 43.9801 7.62386 43.7156 7.53508Z" fill="#65D3FF"/>
<path d="M39.7139 25.4894H21.9973H4.28068C4.03388 25.4894 3.83997 25.6521 3.83997 25.8593V29.0406H21.9973H40.1546V25.8593C40.1546 25.6669 39.9607 25.4894 39.7139 25.4894Z" fill="#25C0FF"/>
<path d="M41.6698 29.0406H21.9965H2.32312C1.98818 29.0406 1.72375 29.2626 1.72375 29.5437V32.5327C1.72375 32.8138 1.98818 33.0358 2.32312 33.0358H21.9965H41.6698C42.0048 33.0358 42.2692 32.8138 42.2692 32.5327V29.5437C42.2692 29.2774 42.0048 29.0406 41.6698 29.0406Z" fill="#25C0FF"/>
<path d="M21.9973 27.8568H3.83997V29.0406H21.9973H40.1546V27.8568H21.9973Z" fill="#BDECFF"/>
<path d="M21.8213 9.76948C23.379 9.76948 24.6418 8.70953 24.6418 7.40201C24.6418 6.0945 23.379 5.03455 21.8213 5.03455C20.2635 5.03455 19.0007 6.0945 19.0007 7.40201C19.0007 8.70953 20.2635 9.76948 21.8213 9.76948Z" fill="#25C0FF"/>
<path d="M21.82 38.8066C27.1261 38.8066 31.4275 35.1961 31.4275 30.7424C31.4275 26.2887 27.1261 22.6782 21.82 22.6782C16.514 22.6782 12.2125 26.2887 12.2125 30.7424C12.2125 35.1961 16.514 38.8066 21.82 38.8066Z" fill="#65D3FF"/>
<path d="M18.3127 30.4669C18.5772 30.4669 18.8592 30.5557 19.0531 30.7332L21.8032 33.0415L24.5532 30.7184C24.9587 30.3781 25.6285 30.3781 26.0516 30.7184C26.4571 31.0588 26.4571 31.621 26.0516 31.9761L22.5612 34.9059C22.1557 35.2462 21.4859 35.2462 21.0628 34.9059L17.5723 31.9761C17.1669 31.6358 17.1669 31.0736 17.5723 30.7184C17.7662 30.5409 18.0483 30.4669 18.3127 30.4669Z" fill="white"/>
<path d="M21.803 26.3239C22.3848 26.3239 22.8607 26.7234 22.8607 27.2117L22.8607 34.1217C22.8607 34.61 22.3848 35.0095 21.803 35.0095C21.2213 35.0095 20.7453 34.61 20.7453 34.1217L20.7453 27.2117C20.7453 26.7234 21.2213 26.3239 21.803 26.3239Z" fill="white"/>
</svg>
