<svg width="20" height="22" viewBox="0 0 20 22" fill="none" xmlns="http://www.w3.org/2000/svg">
<path d="M16.5 19.5834H3.5V18.0667C3.5 15.9 7.83333 14.7084 10 14.7084C12.1667 14.7084 16.5 15.9 16.5 18.0667M10 6.58337C10.862 6.58337 11.6886 6.92578 12.2981 7.53528C12.9076 8.14477 13.25 8.97142 13.25 9.83337C13.25 10.6953 12.9076 11.522 12.2981 12.1315C11.6886 12.741 10.862 13.0834 10 13.0834C9.13805 13.0834 8.3114 12.741 7.7019 12.1315C7.09241 11.522 6.75 10.6953 6.75 9.83337C6.75 8.97142 7.09241 8.14477 7.7019 7.53528C8.3114 6.92578 9.13805 6.58337 10 6.58337ZM10 2.25004C10.2873 2.25004 10.5629 2.36418 10.766 2.56734C10.9692 2.77051 11.0833 3.04606 11.0833 3.33337C11.0833 3.62069 10.9692 3.89624 10.766 4.09941C10.5629 4.30257 10.2873 4.41671 10 4.41671C9.71268 4.41671 9.43713 4.30257 9.23397 4.09941C9.0308 3.89624 8.91667 3.62069 8.91667 3.33337C8.91667 3.04606 9.0308 2.77051 9.23397 2.56734C9.43713 2.36418 9.71268 2.25004 10 2.25004ZM17.5833 2.25004H13.055C12.6 0.993374 11.4083 0.083374 10 0.083374C8.59167 0.083374 7.4 0.993374 6.945 2.25004H2.41667C1.84203 2.25004 1.29093 2.47831 0.884602 2.88464C0.478273 3.29097 0.25 3.84207 0.25 4.41671V19.5834C0.25 20.158 0.478273 20.7091 0.884602 21.1154C1.29093 21.5218 1.84203 21.75 2.41667 21.75H17.5833C18.158 21.75 18.7091 21.5218 19.1154 21.1154C19.5217 20.7091 19.75 20.158 19.75 19.5834V4.41671C19.75 3.84207 19.5217 3.29097 19.1154 2.88464C18.7091 2.47831 18.158 2.25004 17.5833 2.25004Z" fill="#56B3FF"/>
</svg>
