<svg width="42" height="38" viewBox="0 0 42 38" fill="none" xmlns="http://www.w3.org/2000/svg">
<path d="M5.20391 5.14697H0.0178223V37.4503H5.20391V5.14697Z" fill="#7AD9FF"/>
<path d="M10.3892 5.14697H5.20312V37.4503H10.3892V5.14697Z" fill="#BDECFF"/>
<path d="M10.3894 37.4506H37.1665L37.1665 5.14721H10.3894L10.3894 37.4506Z" fill="#25C0FF"/>
<path d="M12.4004 5.14697L23.1959 5.14697V0.833741L12.4004 0.833741V5.14697Z" fill="#BDECFF"/>
<path d="M25.3127 3.0365H23.1959V5.14723H25.3127V3.0365Z" fill="#7AD9FF"/>
<path d="M25.3123 5.14697L32.2976 5.14697V3.03624L25.3123 3.03624V5.14697Z" fill="#BDECFF"/>
<path d="M7.32112 5.14697L12.4014 5.14697V0.833741L7.32112 0.833741L7.32112 5.14697Z" fill="#7AD9FF"/>
<path d="M10.39 37.4503H0.0178223L5.20391 32.9535L10.39 37.4503Z" fill="#89DDFF"/>
<path d="M30.2979 10.2102V12.8674C30.2979 16.5518 27.3111 19.5385 23.6268 19.5385V19.5385C19.9424 19.5385 16.9557 16.5518 16.9557 12.8674V10.2102" stroke="white" stroke-width="2" stroke-linecap="round" stroke-linejoin="round"/>
<path d="M40.6385 37.4506H21.1854C20.5292 37.4506 20 36.9917 20 36.4227V26.2545C20 25.6855 20.5292 25.2267 21.1854 25.2267H40.6385C41.2947 25.2267 41.8239 25.6855 41.8239 26.2545V36.4227C41.8239 36.9917 41.2947 37.4506 40.6385 37.4506Z" fill="#BDECFF"/>
<path d="M41.823 27.6328H20.0203V30.0189H41.823V27.6328Z" fill="#7AD9FF"/>
<path d="M37.4106 35.5075C38.5048 35.5075 39.3918 34.7384 39.3918 33.7896C39.3918 32.8409 38.5048 32.0718 37.4106 32.0718C36.3164 32.0718 35.4294 32.8409 35.4294 33.7896C35.4294 34.7384 36.3164 35.5075 37.4106 35.5075Z" fill="#25C0FF"/>
<path d="M34.8628 35.5075C35.9569 35.5075 36.844 34.7384 36.844 33.7896C36.844 32.8409 35.9569 32.0718 34.8628 32.0718C33.7686 32.0718 32.8816 32.8409 32.8816 33.7896C32.8816 34.7384 33.7686 35.5075 34.8628 35.5075Z" fill="#62D2FF"/>
</svg>
