<svg width="230" height="36" viewBox="0 0 230 36" fill="none" xmlns="http://www.w3.org/2000/svg">
<g clip-path="url(#clip0_2_761)">
<g clip-path="url(#clip1_2_761)">
<path fill-rule="evenodd" clip-rule="evenodd" d="M20.5833 29.2917H6.50001C5.4944 29.2917 4.52997 28.8922 3.8189 28.1811C3.10782 27.47 2.70834 26.5056 2.70834 25.5V11.3549C2.70834 10.199 3.85234 9.46559 4.85876 9.81442C5.00284 9.86425 5.14368 9.93684 5.27801 10.0333L5.46759 10.1687C5.92872 10.4959 6.48038 10.6712 7.04579 10.6702C7.61121 10.6692 8.16226 10.492 8.62226 10.1633C9.26797 9.70372 10.0408 9.45679 10.8333 9.45679C11.6259 9.45679 12.3987 9.70372 13.0444 10.1633C13.5044 10.492 14.0555 10.6692 14.6209 10.6702C15.1863 10.6712 15.738 10.4959 16.1991 10.1687L16.3887 10.0333C17.4644 9.26409 18.9583 10.0333 18.9583 11.3549V19.5417H22.75C22.9655 19.5417 23.1722 19.6273 23.3245 19.7796C23.4769 19.932 23.5625 20.1387 23.5625 20.3542V26.3125C23.5625 27.1026 23.2486 27.8604 22.6899 28.4191C22.1312 28.9778 21.3735 29.2917 20.5833 29.2917ZM19.2292 21.1667V26.3125C19.2292 26.6717 19.3718 27.0161 19.6258 27.27C19.8798 27.524 20.2242 27.6667 20.5833 27.6667C20.9425 27.6667 21.2869 27.524 21.5409 27.27C21.7948 27.0161 21.9375 26.6717 21.9375 26.3125V21.1667H19.2292ZM14.625 16.5625C14.625 16.347 14.5394 16.1404 14.387 15.988C14.2347 15.8356 14.028 15.75 13.8125 15.75H7.31251C7.09702 15.75 6.89036 15.8356 6.73799 15.988C6.58561 16.1404 6.50001 16.347 6.50001 16.5625C6.50001 16.778 6.58561 16.9847 6.73799 17.137C6.89036 17.2894 7.09702 17.375 7.31251 17.375H13.8125C14.028 17.375 14.2347 17.2894 14.387 17.137C14.5394 16.9847 14.625 16.778 14.625 16.5625ZM13.5417 19.8125C13.5417 19.597 13.4561 19.3904 13.3037 19.238C13.1513 19.0856 12.9447 19 12.7292 19H7.31251C7.09702 19 6.89036 19.0856 6.73799 19.238C6.58561 19.3904 6.50001 19.597 6.50001 19.8125C6.50001 20.028 6.58561 20.2347 6.73799 20.387C6.89036 20.5394 7.09702 20.625 7.31251 20.625H12.7292C12.9447 20.625 13.1513 20.5394 13.3037 20.387C13.4561 20.2347 13.5417 20.028 13.5417 19.8125ZM13.8125 22.25C14.028 22.25 14.2347 22.3356 14.387 22.488C14.5394 22.6404 14.625 22.847 14.625 23.0625C14.625 23.278 14.5394 23.4847 14.387 23.637C14.2347 23.7894 14.028 23.875 13.8125 23.875H7.31251C7.09702 23.875 6.89036 23.7894 6.73799 23.637C6.58561 23.4847 6.50001 23.278 6.50001 23.0625C6.50001 22.847 6.58561 22.6404 6.73799 22.488C6.89036 22.3356 7.09702 22.25 7.31251 22.25H13.8125Z" fill="#56B3FF"/>
</g>
</g>
<defs>
<clipPath id="clip0_2_761">
<rect width="24" height="24" fill="white" transform="translate(0 6)"/>
</clipPath>
<clipPath id="clip1_2_761">
<rect width="24" height="24" fill="white" transform="translate(0 6)"/>
</clipPath>
</defs>
</svg>
