<svg width="16" height="17" viewBox="0 0 16 17" fill="none" xmlns="http://www.w3.org/2000/svg">
<path d="M14.997 17C6.46601 17.0127 -0.00899062 10.0512 9.37069e-06 1.06569C9.37069e-06 0.478124 0.448009 0 1.00001 0H3.64001C4.13501 0 4.55601 0.38675 4.62901 0.907374C4.80311 2.15587 5.14493 3.37136 5.64401 4.51668L5.74701 4.75256C5.81619 4.91128 5.83108 5.09069 5.78909 5.25983C5.7471 5.42897 5.65087 5.57724 5.51701 5.67906C4.69901 6.29956 4.38701 7.54799 5.02401 8.52124C5.82599 9.74665 6.82695 10.8105 7.98 11.663C8.897 12.3388 10.072 12.0073 10.655 11.1392C10.7507 10.9966 10.8904 10.894 11.0498 10.8491C11.2092 10.8043 11.3784 10.8201 11.528 10.8938L11.749 11.0022C12.827 11.5334 13.971 11.8968 15.146 12.0817C15.636 12.1592 16 12.6065 16 13.1335V15.9375C16 16.0771 15.9741 16.2154 15.9238 16.3443C15.8735 16.4733 15.7997 16.5905 15.7068 16.6892C15.6138 16.7878 15.5034 16.8661 15.382 16.9194C15.2605 16.9727 15.1304 17.0001 14.999 17H14.997Z" fill="#6F65FA"/>
</svg>
