<svg width="120" height="120" viewBox="0 0 120 120" fill="none" xmlns="http://www.w3.org/2000/svg">
<path d="M120 60C120 93.1371 93.1371 120 60 120C26.8629 120 0 93.1371 0 60C0 26.8629 26.8629 0 60 0C93.1371 0 120 26.8629 120 60ZM9 60C9 88.1665 31.8335 111 60 111C88.1665 111 111 88.1665 111 60C111 31.8335 88.1665 9 60 9C31.8335 9 9 31.8335 9 60Z" fill="#FF8A65"/>
<path d="M120 60C120 69.4686 117.759 78.8028 113.46 87.2394C109.162 95.676 102.927 102.976 95.2671 108.541C87.6068 114.107 78.7381 117.78 69.3861 119.261C60.034 120.743 50.4642 119.989 41.459 117.063C32.4538 114.137 24.2689 109.122 17.5736 102.426C10.8783 95.7311 5.86257 87.5462 2.93661 78.541C0.0106425 69.5358 -0.74252 59.966 0.7387 50.6139C2.21992 41.2619 5.89347 32.3932 11.459 24.7329L18.7401 30.0229C14.0094 36.5342 10.8869 44.0726 9.6279 52.0218C8.36886 59.9711 9.00905 68.1054 11.4961 75.7599C13.9832 83.4143 18.2465 90.3714 23.9376 96.0624C29.6286 101.753 36.5857 106.017 44.2401 108.504C51.8945 110.991 60.0289 111.631 67.9782 110.372C75.9274 109.113 83.4658 105.991 89.977 101.26C96.4883 96.5292 101.787 90.3246 105.441 83.1535C109.095 75.9824 111 68.0483 111 60H120Z" fill="#F5C324"/>
<path d="M89 66C88.5858 66 88.25 65.6642 88.25 65.25L88.25 56.463L85.3089 59.7501C85.0327 60.0588 84.5586 60.0851 84.2499 59.8089C83.9412 59.5327 83.9149 59.0586 84.1911 58.7499L88.4411 53.9999C88.5833 53.8409 88.7866 53.75 89 53.75C89.2134 53.75 89.4166 53.8409 89.5589 53.9999L93.8089 58.7499C94.0851 59.0586 94.0588 59.5327 93.7501 59.8089C93.4414 60.0851 92.9673 60.0588 92.6911 59.7501L89.75 56.463L89.75 65.25C89.75 65.6642 89.4142 66 89 66Z" fill="#53BB53"/>
<path d="M43.016 67V59.244L41.406 59.622V58.25L43.772 57.2H44.878V67H43.016ZM51.5462 67.168C50.6408 67.168 49.8662 66.958 49.2222 66.538C48.5782 66.1087 48.0788 65.516 47.7242 64.76C47.3788 63.9947 47.2062 63.108 47.2062 62.1C47.2062 61.1013 47.3788 60.2193 47.7242 59.454C48.0788 58.6887 48.5782 58.096 49.2222 57.676C49.8662 57.2467 50.6408 57.032 51.5462 57.032C52.4515 57.032 53.2262 57.2467 53.8702 57.676C54.5142 58.096 55.0088 58.6887 55.3542 59.454C55.7088 60.2193 55.8862 61.1013 55.8862 62.1C55.8862 63.108 55.7088 63.9947 55.3542 64.76C55.0088 65.516 54.5142 66.1087 53.8702 66.538C53.2262 66.958 52.4515 67.168 51.5462 67.168ZM51.5462 65.558C52.2835 65.558 52.8855 65.25 53.3522 64.634C53.8188 64.018 54.0522 63.1733 54.0522 62.1C54.0522 61.0267 53.8188 60.182 53.3522 59.566C52.8855 58.95 52.2835 58.642 51.5462 58.642C50.7995 58.642 50.1928 58.95 49.7262 59.566C49.2688 60.182 49.0402 61.0267 49.0402 62.1C49.0402 63.1733 49.2688 64.018 49.7262 64.634C50.1928 65.25 50.7995 65.558 51.5462 65.558ZM60.2336 62.016C59.7856 62.016 59.3796 61.918 59.0156 61.722C58.6516 61.5167 58.3623 61.2273 58.1476 60.854C57.933 60.4807 57.8256 60.0373 57.8256 59.524C57.8256 59.0107 57.933 58.5673 58.1476 58.194C58.3623 57.8207 58.6516 57.536 59.0156 57.34C59.3796 57.1347 59.7903 57.032 60.2476 57.032C60.6956 57.032 61.097 57.1347 61.4516 57.34C61.8156 57.536 62.105 57.8207 62.3196 58.194C62.5343 58.5673 62.6416 59.0107 62.6416 59.524C62.6416 60.0373 62.5343 60.4807 62.3196 60.854C62.105 61.2273 61.8156 61.5167 61.4516 61.722C61.0876 61.918 60.6816 62.016 60.2336 62.016ZM59.7016 67L65.2316 57.2H66.9816L61.4516 67H59.7016ZM60.2336 60.77C60.5043 60.77 60.7376 60.6673 60.9336 60.462C61.1296 60.2473 61.2276 59.9347 61.2276 59.524C61.2276 59.1133 61.1296 58.8007 60.9336 58.586C60.747 58.3713 60.5136 58.264 60.2336 58.264C59.9536 58.264 59.7156 58.3713 59.5196 58.586C59.333 58.8007 59.2396 59.1133 59.2396 59.524C59.2396 59.9347 59.333 60.2473 59.5196 60.462C59.7156 60.6673 59.9536 60.77 60.2336 60.77ZM66.5056 67.168C66.0576 67.168 65.6516 67.07 65.2876 66.874C64.9236 66.6687 64.6343 66.3793 64.4196 66.006C64.205 65.6327 64.0976 65.1893 64.0976 64.676C64.0976 64.1627 64.205 63.724 64.4196 63.36C64.6343 62.9867 64.9236 62.702 65.2876 62.506C65.6516 62.3007 66.0623 62.198 66.5196 62.198C66.9676 62.198 67.369 62.3007 67.7236 62.506C68.0876 62.702 68.377 62.9867 68.5916 63.36C68.8063 63.724 68.9136 64.1627 68.9136 64.676C68.9136 65.1893 68.8063 65.6327 68.5916 66.006C68.377 66.3793 68.0876 66.6687 67.7236 66.874C67.369 67.07 66.963 67.168 66.5056 67.168ZM66.5056 65.922C66.7856 65.922 67.019 65.8193 67.2056 65.614C67.4016 65.3993 67.4996 65.0867 67.4996 64.676C67.4996 64.2653 67.4016 63.9527 67.2056 63.738C67.019 63.5233 66.7856 63.416 66.5056 63.416C66.2256 63.416 65.9876 63.5233 65.7916 63.738C65.605 63.9527 65.5116 64.2653 65.5116 64.676C65.5116 65.0867 65.605 65.3993 65.7916 65.614C65.9876 65.8193 66.2256 65.922 66.5056 65.922Z" fill="#14142B"/>
</svg>
