<svg width="43" height="42" viewBox="0 0 43 42" fill="none" xmlns="http://www.w3.org/2000/svg">
<path d="M37.5425 23.7731C35.9978 22.3251 32.9283 22.9686 31.8391 23.934C29.2647 23.2189 26.8882 24.4703 25.9179 26.1329L25.304 31.0848V32.6937H30.8489L37.5425 23.7731Z" fill="#64D2FF"/>
<path d="M0.886227 34.7676L8.03528 41.0782C8.53037 41.5072 9.34231 41.4536 9.73838 40.9352L10.6691 39.7553C10.8474 39.5229 11.1246 39.3799 11.4415 39.3441L31.5222 36.9486C31.7995 36.9128 32.0371 36.7877 32.2153 36.6089L42.5329 25.99C42.929 25.5967 42.9092 24.9889 42.4735 24.5956C40.7506 23.0403 37.9583 23.0224 36.2156 24.5598L29.1854 30.781C28.9676 30.9598 28.6903 31.0671 28.3933 31.0671H25.2841V26.0615H11.2434C9.8572 26.0615 8.53037 26.5442 7.5402 27.4201L0.886227 33.3017C0.430747 33.7129 0.430747 34.3564 0.886227 34.7676Z" fill="#25C0FF"/>
<path d="M25.3238 31.085H17.0063V26.0795H25.3238C26.8487 26.0795 28.0963 27.2057 28.0963 28.5822C28.0963 29.9588 26.8487 31.085 25.3238 31.085Z" fill="#25C0FF"/>
<path d="M17.0063 31.085C17.0063 30.4235 17.6005 29.8872 18.3332 29.8872H25.3238C27.3042 29.8872 28.2943 28.2247 27.324 26.8481C28.9875 28.3141 27.8983 31.085 25.3238 31.085H17.0063Z" fill="#BDECFF"/>
<path d="M25.3196 21.7126C30.0528 21.7126 33.8899 18.2489 33.8899 13.9761C33.8899 9.70328 30.0528 6.2395 25.3196 6.2395C20.5864 6.2395 16.7493 9.70328 16.7493 13.9761C16.7493 18.2489 20.5864 21.7126 25.3196 21.7126Z" fill="#25C0FF"/>
<path d="M25.3191 19.8858C28.9348 19.8858 31.8659 17.2399 31.8659 13.9759C31.8659 10.712 28.9348 8.06604 25.3191 8.06604C21.7035 8.06604 18.7724 10.712 18.7724 13.9759C18.7724 17.2399 21.7035 19.8858 25.3191 19.8858Z" fill="#BDECFF"/>
<path d="M24.2716 15.2656C24.3906 15.7169 24.7477 15.9963 25.3191 15.9963C26.0332 15.9963 26.2475 15.6954 26.2475 15.3516C26.2475 14.9218 26.0094 14.7283 25.1286 14.4919C23.5336 14.0836 23.0575 13.5464 23.0575 12.7297C23.0575 11.6982 24.0573 11.1179 25.2 11.1179C26.8427 11.1179 27.3902 11.8701 27.4616 12.6438H26.1047C26.0332 12.4074 25.9142 12.0205 25.1762 12.0205C24.5573 12.0205 24.3906 12.3429 24.3906 12.6008C24.3906 12.9661 24.6049 13.138 25.6285 13.3959C27.0569 13.7613 27.5807 14.277 27.5807 15.1796C27.5807 16.3186 26.6046 16.8774 25.2476 16.8774C23.7954 16.8774 22.9622 16.2112 22.8908 15.2441H24.2716V15.2656ZM24.6525 11.4833V10.6022H25.7952V11.4833H24.6525ZM24.7239 17.5436V16.2971H25.8666V17.5436H24.7239Z" fill="white"/>
<path d="M11.1246 10.128C14.0449 10.128 16.4123 7.99089 16.4123 5.35465C16.4123 2.7184 14.0449 0.581299 11.1246 0.581299C8.20425 0.581299 5.83685 2.7184 5.83685 5.35465C5.83685 7.99089 8.20425 10.128 11.1246 10.128Z" fill="#25C0FF"/>
<path d="M11.125 9.00575C13.3588 9.00575 15.1696 7.37106 15.1696 5.35456C15.1696 3.33806 13.3588 1.70337 11.125 1.70337C8.89118 1.70337 7.08032 3.33806 7.08032 5.35456C7.08032 7.37106 8.89118 9.00575 11.125 9.00575Z" fill="#BDECFF"/>
</svg>
