<svg width="28" height="28" viewBox="0 0 28 28" fill="none" xmlns="http://www.w3.org/2000/svg">
<g clip-path="url(#clip0_2_787)">
<path d="M7.46668 10.7333H7.70001C8.59834 10.7333 9.33334 11.4683 9.33334 12.3666V20.5333C9.33334 21.4316 8.59834 22.1666 7.70001 22.1666H7.46668C6.56834 22.1666 5.83334 21.4316 5.83334 20.5333V12.3666C5.83334 11.4683 6.56834 10.7333 7.46668 10.7333ZM14 5.83331C14.8983 5.83331 15.6333 6.56831 15.6333 7.46665V20.5333C15.6333 21.4316 14.8983 22.1666 14 22.1666C13.1017 22.1666 12.3667 21.4316 12.3667 20.5333V7.46665C12.3667 6.56831 13.1017 5.83331 14 5.83331ZM20.5333 15.1666C21.4317 15.1666 22.1667 15.9016 22.1667 16.8V20.5333C22.1667 21.4316 21.4317 22.1666 20.5333 22.1666C19.635 22.1666 18.9 21.4316 18.9 20.5333V16.8C18.9 15.9016 19.635 15.1666 20.5333 15.1666Z" fill="#56B3FF"/>
</g>
<defs>
<clipPath id="clip0_2_787">
<rect width="28" height="28" fill="white"/>
</clipPath>
</defs>
</svg>
